<svg width="342" height="325" viewBox="0 0 342 325" fill="none" xmlns="http://www.w3.org/2000/svg">
<rect width="342" height="289" rx="16" fill="#101013"/>
<mask id="mask0_1738_5899" style="mask-type:alpha" maskUnits="userSpaceOnUse" x="125" y="102" width="92" height="93">
<rect x="125.386" y="102.886" width="91.2282" height="91.2282" fill="#D9D9D9"/>
</mask>
<g mask="url(#mask0_1738_5899)">
<path d="M148.193 166.692L163.398 151.897L170.24 158.462L178.602 148.198L193.807 166.692H148.193ZM155.795 137.102C153.705 137.102 151.916 136.377 150.428 134.927C148.938 133.48 148.193 131.739 148.193 129.704C148.193 127.67 148.938 125.929 150.428 124.482C151.916 123.032 153.705 122.307 155.795 122.307C157.886 122.307 159.676 123.032 161.166 124.482C162.654 125.929 163.398 127.67 163.398 129.704C163.398 131.739 162.654 133.48 161.166 134.927C159.676 136.377 157.886 137.102 155.795 137.102ZM144.392 181.487C141.224 181.487 138.532 180.409 136.314 178.251C134.097 176.093 132.988 173.473 132.988 170.391V118.608C132.988 115.526 134.097 112.906 136.314 110.748C138.532 108.591 141.224 107.512 144.392 107.512H197.608C200.776 107.512 203.468 108.591 205.686 110.748C207.903 112.906 209.012 115.526 209.012 118.608V170.391C209.012 173.473 207.903 176.093 205.686 178.251C203.468 180.409 200.776 181.487 197.608 181.487H144.392ZM144.392 174.09H197.608C198.685 174.09 199.587 173.735 200.315 173.025C201.044 172.317 201.409 171.439 201.409 170.391V118.608C201.409 117.56 201.044 116.681 200.315 115.971C199.587 115.263 198.685 114.909 197.608 114.909H144.392C143.315 114.909 142.411 115.263 141.682 115.971C140.954 116.681 140.591 117.56 140.591 118.608V170.391C140.591 171.439 140.954 172.317 141.682 173.025C142.411 173.735 143.315 174.09 144.392 174.09Z" fill="white"/>
</g>
<rect y="305" width="207" height="20" rx="4" fill="#3C3C40"/>
</svg>
