<svg width="48" height="48" viewBox="0 0 48 48" fill="none" xmlns="http://www.w3.org/2000/svg">
<path fill-rule="evenodd" clip-rule="evenodd" d="M2.31127 6.09504C0 9.5541 0 14.3694 0 24C0 33.6306 0 38.4459 2.31127 41.905C3.31185 43.4024 4.59757 44.6882 6.09504 45.6887C9.5541 48 14.3694 48 24 48C33.6306 48 38.4459 48 41.905 45.6887C43.4024 44.6882 44.6882 43.4024 45.6887 41.905C48 38.4459 48 33.6306 48 24C48 14.3694 48 9.5541 45.6887 6.09504C44.6882 4.59757 43.4024 3.31185 41.905 2.31127C38.4459 0 33.6306 0 24 0C14.3694 0 9.5541 0 6.09504 2.31127C4.59757 3.31185 3.31185 4.59757 2.31127 6.09504ZM24.4726 18.2993C24.4726 20.1688 23.6327 21.3699 22.0238 22.1637C24.2298 22.806 25.2973 24.5241 25.2973 26.848C25.2973 30.6079 22.2363 32.2215 18.978 32.2215H10.2857V13.7143H18.7402C21.8113 13.7143 24.4726 14.6125 24.4726 18.2993ZM17.9256 16.8737H14.2271V21.1924H18.2241C19.6307 21.1924 20.6274 20.5605 20.6274 18.9886C20.6274 17.2862 19.3473 16.8737 17.9256 16.8737ZM14.2271 29.0778H18.4417C20.0455 29.0778 21.356 28.4929 21.356 26.6234C21.356 24.7278 20.258 23.981 18.5226 23.981H14.2271V29.0778ZM29.3095 16.5081H36.5801V14.6856H29.3095V16.5081ZM33.1092 18.4455C37.1821 18.4455 39.4286 21.7512 39.4286 25.7148C39.4286 25.9498 39.4134 26.1848 39.3982 26.4041H30.033C30.033 28.5504 31.131 29.8141 33.2205 29.8141C34.3033 29.8141 35.6997 29.2084 36.0387 28.0647H39.1857C38.2193 31.1301 36.2107 32.5714 33.1092 32.5714C29.011 32.5714 26.4661 29.7097 26.4661 25.5372C26.4661 21.5162 29.1527 18.4455 33.1092 18.4455ZM32.9979 21.2237C31.2878 21.2237 30.1545 22.3256 30.0381 24.0855H35.8414C35.6896 22.3099 34.789 21.2237 32.9979 21.2237Z" fill="#053EFF"/>
<path fill-rule="evenodd" clip-rule="evenodd" d="M39.4286 25.7148C39.4286 21.7512 37.1821 18.4455 33.1092 18.4455C29.1527 18.4455 26.4661 21.5162 26.4661 25.5372C26.4661 29.7097 29.011 32.5714 33.1092 32.5714C36.2107 32.5714 38.2193 31.1301 39.1857 28.0647H36.0387C35.6997 29.2084 34.3033 29.8141 33.2205 29.8141C31.131 29.8141 30.033 28.5504 30.033 26.4041H39.3982C39.4134 26.1848 39.4286 25.9498 39.4286 25.7148ZM32.9979 21.2237C31.2878 21.2237 30.1545 22.3256 30.0381 24.0855H35.8414C35.6896 22.3099 34.789 21.2237 32.9979 21.2237Z" fill="white"/>
<path fill-rule="evenodd" clip-rule="evenodd" d="M22.0238 22.1637C23.6327 21.3699 24.4726 20.1688 24.4726 18.2993C24.4726 14.6125 21.8113 13.7143 18.7402 13.7143H10.2857V32.2215H18.978C22.2363 32.2215 25.2973 30.6079 25.2973 26.848C25.2973 24.5241 24.2298 22.806 22.0238 22.1637ZM17.9256 16.8737H14.2271V21.1924H18.2241C19.6307 21.1924 20.6274 20.5605 20.6274 18.9886C20.6274 17.2862 19.3473 16.8737 17.9256 16.8737ZM14.2271 29.0778H18.4417C20.0455 29.0778 21.356 28.4929 21.356 26.6234C21.356 24.7278 20.258 23.981 18.5226 23.981H14.2271V29.0778Z" fill="white"/>
<path d="M36.5801 16.5081H29.3095V14.6856H36.5801V16.5081Z" fill="white"/>
</svg>
