<svg width="24" height="24" viewBox="0 0 24 24" fill="none" xmlns="http://www.w3.org/2000/svg">
<path fill-rule="evenodd" clip-rule="evenodd" d="M1.15564 3.04752C0 4.77705 0 7.1847 0 12C0 16.8153 0 19.2229 1.15564 20.9525C1.65592 21.7012 2.29879 22.3441 3.04752 22.8444C4.77705 24 7.1847 24 12 24C16.8153 24 19.2229 24 20.9525 22.8444C21.7012 22.3441 22.3441 21.7012 22.8444 20.9525C24 19.2229 24 16.8153 24 12C24 7.1847 24 4.77705 22.8444 3.04752C22.3441 2.29879 21.7012 1.65592 20.9525 1.15564C19.2229 0 16.8153 0 12 0C7.1847 0 4.77705 0 3.04752 1.15564C2.29879 1.65592 1.65592 2.29879 1.15564 3.04752ZM12.2363 9.14966C12.2363 10.0844 11.8164 10.685 11.0119 11.0819C12.1149 11.403 12.6487 12.2621 12.6487 13.424C12.6487 15.304 11.1182 16.1108 9.48899 16.1108H5.14286V6.85714H9.37009C10.9057 6.85714 12.2363 7.30625 12.2363 9.14966ZM8.9628 8.43684H7.11354V10.5962H9.11205C9.81533 10.5962 10.3137 10.2803 10.3137 9.49432C10.3137 8.64311 9.67366 8.43684 8.9628 8.43684ZM7.11354 14.5389H9.22083C10.0228 14.5389 10.678 14.2465 10.678 13.3117C10.678 12.3639 10.129 11.9905 9.26131 11.9905H7.11354V14.5389ZM14.6548 8.25406H18.29V7.3428H14.6548V8.25406ZM16.5546 9.22277C18.5911 9.22277 19.7143 10.8756 19.7143 12.8574C19.7143 12.9749 19.7067 13.0924 19.6991 13.202H15.0165C15.0165 14.2752 15.5655 14.9071 16.6103 14.9071C17.1516 14.9071 17.8498 14.6042 18.0193 14.0324H19.5929C19.1097 15.5651 18.1054 16.2857 16.5546 16.2857C14.5055 16.2857 13.233 14.8548 13.233 12.7686C13.233 10.7581 14.5763 9.22277 16.5546 9.22277ZM16.499 10.6119C15.6439 10.6119 15.0772 11.1628 15.019 12.0427H17.9207C17.8448 11.155 17.3945 10.6119 16.499 10.6119Z" fill="#053EFF"/>
<path fill-rule="evenodd" clip-rule="evenodd" d="M19.7143 12.8574C19.7143 10.8756 18.5911 9.22277 16.5546 9.22277C14.5763 9.22277 13.233 10.7581 13.233 12.7686C13.233 14.8548 14.5055 16.2857 16.5546 16.2857C18.1054 16.2857 19.1097 15.5651 19.5929 14.0324H18.0193C17.8498 14.6042 17.1516 14.9071 16.6103 14.9071C15.5655 14.9071 15.0165 14.2752 15.0165 13.202H19.6991C19.7067 13.0924 19.7143 12.9749 19.7143 12.8574ZM16.499 10.6119C15.6439 10.6119 15.0772 11.1628 15.019 12.0427H17.9207C17.8448 11.155 17.3945 10.6119 16.499 10.6119Z" fill="white"/>
<path fill-rule="evenodd" clip-rule="evenodd" d="M11.0119 11.0819C11.8164 10.685 12.2363 10.0844 12.2363 9.14966C12.2363 7.30625 10.9057 6.85714 9.37009 6.85714H5.14286V16.1108H9.48899C11.1182 16.1108 12.6487 15.304 12.6487 13.424C12.6487 12.2621 12.1149 11.403 11.0119 11.0819ZM8.9628 8.43684H7.11354V10.5962H9.11205C9.81533 10.5962 10.3137 10.2803 10.3137 9.49432C10.3137 8.64311 9.67366 8.43684 8.9628 8.43684ZM7.11354 14.5389H9.22083C10.0228 14.5389 10.678 14.2465 10.678 13.3117C10.678 12.3639 10.129 11.9905 9.26131 11.9905H7.11354V14.5389Z" fill="white"/>
<path d="M18.29 8.25406H14.6548V7.3428H18.29V8.25406Z" fill="white"/>
</svg>
