<svg width="64" height="64" viewBox="0 0 64 64" fill="none" xmlns="http://www.w3.org/2000/svg">
<path fill-rule="evenodd" clip-rule="evenodd" d="M3.0817 8.12672C0 12.7388 0 19.1592 0 32C0 44.8408 0 51.2612 3.0817 55.8733C4.4158 57.8699 6.1301 59.5842 8.12672 60.9183C12.7388 64 19.1592 64 32 64C44.8408 64 51.2612 64 55.8733 60.9183C57.8699 59.5842 59.5842 57.8699 60.9183 55.8733C64 51.2612 64 44.8408 64 32C64 19.1592 64 12.7388 60.9183 8.12672C59.5842 6.1301 57.8699 4.4158 55.8733 3.0817C51.2612 0 44.8408 0 32 0C19.1592 0 12.7388 0 8.12672 3.0817C6.1301 4.4158 4.4158 6.1301 3.0817 8.12672ZM32.6302 24.3991C32.6302 26.8918 31.5103 28.4933 29.3651 29.5516C32.3063 30.408 33.7298 32.6988 33.7298 35.7973C33.7298 40.8105 29.6484 42.9621 25.304 42.9621H13.7143V18.2857H24.9869C29.0817 18.2857 32.6302 19.4833 32.6302 24.3991ZM23.9008 22.4982H18.9694V28.2565H24.2988C26.1742 28.2565 27.5032 27.414 27.5032 25.3182C27.5032 23.0483 25.7964 22.4982 23.9008 22.4982ZM18.9694 38.7704H24.5889C26.7274 38.7704 28.4746 37.9906 28.4746 35.4979C28.4746 32.9704 27.0107 31.9747 24.6968 31.9747H18.9694V38.7704ZM39.0794 22.0108H48.7734V19.5808H39.0794V22.0108ZM44.1456 24.5941C49.5762 24.5941 52.5714 29.0015 52.5714 34.2863C52.5714 34.5997 52.5512 34.913 52.531 35.2054H40.044C40.044 38.0672 41.5079 39.7522 44.294 39.7522C45.7377 39.7522 47.5996 38.9445 48.0516 37.4196H52.2476C50.9591 41.5068 48.281 43.4286 44.1456 43.4286C38.6814 43.4286 35.2881 39.6129 35.2881 34.0496C35.2881 28.6882 38.8702 24.5941 44.1456 24.5941ZM43.9972 28.2983C41.7171 28.2983 40.206 29.7675 40.0508 32.1139H47.7885C47.5861 29.7466 46.3853 28.2983 43.9972 28.2983Z" fill="#053EFF"/>
<path fill-rule="evenodd" clip-rule="evenodd" d="M52.5714 34.2863C52.5714 29.0015 49.5762 24.5941 44.1456 24.5941C38.8702 24.5941 35.2881 28.6882 35.2881 34.0496C35.2881 39.6129 38.6814 43.4286 44.1456 43.4286C48.281 43.4286 50.9591 41.5068 52.2476 37.4196H48.0516C47.5996 38.9445 45.7377 39.7522 44.294 39.7522C41.5079 39.7522 40.044 38.0672 40.044 35.2054H52.531C52.5512 34.913 52.5714 34.5997 52.5714 34.2863ZM43.9972 28.2983C41.7171 28.2983 40.206 29.7675 40.0508 32.1139H47.7885C47.5861 29.7466 46.3853 28.2983 43.9972 28.2983Z" fill="white"/>
<path fill-rule="evenodd" clip-rule="evenodd" d="M29.3651 29.5516C31.5103 28.4933 32.6302 26.8918 32.6302 24.3991C32.6302 19.4833 29.0817 18.2857 24.9869 18.2857H13.7143V42.9621H25.304C29.6484 42.9621 33.7298 40.8105 33.7298 35.7973C33.7298 32.6988 32.3063 30.408 29.3651 29.5516ZM23.9008 22.4982H18.9694V28.2565H24.2988C26.1742 28.2565 27.5032 27.414 27.5032 25.3182C27.5032 23.0483 25.7964 22.4982 23.9008 22.4982ZM18.9694 38.7704H24.5889C26.7274 38.7704 28.4746 37.9906 28.4746 35.4979C28.4746 32.9704 27.0107 31.9747 24.6968 31.9747H18.9694V38.7704Z" fill="white"/>
<path d="M48.7734 22.0108H39.0794V19.5808H48.7734V22.0108Z" fill="white"/>
</svg>
