<svg width="64" height="64" viewBox="0 0 64 64" fill="none" xmlns="http://www.w3.org/2000/svg">
<path fill-rule="evenodd" clip-rule="evenodd" d="M3.0817 8.12672C0 12.7388 0 19.1592 0 32C0 44.8408 0 51.2612 3.0817 55.8733C4.4158 57.8699 6.1301 59.5842 8.12672 60.9183C12.7388 64 19.1592 64 32 64C44.8408 64 51.2612 64 55.8733 60.9183C57.8699 59.5842 59.5842 57.8699 60.9183 55.8733C64 51.2612 64 44.8408 64 32C64 19.1592 64 12.7388 60.9183 8.12672C59.5842 6.1301 57.8699 4.4158 55.8733 3.0817C51.2612 0 44.8408 0 32 0C19.1592 0 12.7388 0 8.12672 3.0817C6.1301 4.4158 4.4158 6.1301 3.0817 8.12672Z" fill="#053EFF"/>
<path fill-rule="evenodd" clip-rule="evenodd" d="M3.0817 8.12672C0 12.7388 0 19.1592 0 32C0 44.8408 0 51.2612 3.0817 55.8733C4.4158 57.8699 6.1301 59.5842 8.12672 60.9183C12.7388 64 19.1592 64 32 64C44.8408 64 51.2612 64 55.8733 60.9183C57.8699 59.5842 59.5842 57.8699 60.9183 55.8733C64 51.2612 64 44.8408 64 32C64 19.1592 64 12.7388 60.9183 8.12672C59.5842 6.1301 57.8699 4.4158 55.8733 3.0817C51.2612 0 44.8408 0 32 0C19.1592 0 12.7388 0 8.12672 3.0817C6.1301 4.4158 4.4158 6.1301 3.0817 8.12672Z" fill="#E74D89"/>
<path d="M32 53.2832C20.2333 53.2832 10.6667 43.7332 10.6667 31.9832C10.6667 20.2165 20.2333 10.6665 32 10.6665C43.7667 10.6665 53.3333 20.2165 53.3333 31.9665C53.3333 43.7165 43.7667 53.2832 32 53.2832ZM49.9833 34.8832C49.3667 34.6832 44.35 33.1998 38.6333 34.0998C41.0167 40.6332 41.9833 45.9665 42.1667 47.0665C46.2667 44.3165 49.1833 39.9498 49.9833 34.8832ZM39.1167 48.7498C38.85 47.1498 37.7833 41.5832 35.2333 34.9498C35.2 34.9665 35.15 34.9832 35.1167 34.9832C24.8333 38.5665 21.15 45.6832 20.8167 46.3498C23.9 48.7498 27.7833 50.1832 32 50.1832C34.5167 50.1998 36.9333 49.6832 39.1167 48.7498ZM18.4667 44.1665C18.8833 43.4665 23.8833 35.1998 33.2833 32.1498C33.5167 32.0665 33.7667 31.9998 34 31.9332C33.55 30.8998 33.05 29.8665 32.5167 28.8498C23.4167 31.5665 14.5833 31.4498 13.7833 31.4332C13.7833 31.6165 13.7667 31.7998 13.7667 31.9832C13.7833 36.6665 15.55 40.9332 18.4667 44.1665ZM14.1667 28.2665C14.9833 28.2832 22.4833 28.3165 31.0167 26.0498C28 20.6832 24.7333 16.1832 24.2667 15.5332C19.15 17.9332 15.35 22.6332 14.1667 28.2665ZM27.7333 14.2998C28.2333 14.9665 31.55 19.4665 34.5333 24.9498C41.0167 22.5165 43.75 18.8498 44.0833 18.3832C40.8667 15.5332 36.6333 13.7998 32 13.7998C30.5333 13.7998 29.1 13.9832 27.7333 14.2998ZM46.1 20.4832C45.7167 20.9998 42.6667 24.9165 35.9333 27.6665C36.35 28.5332 36.7667 29.4165 37.15 30.2998C37.2833 30.6165 37.4167 30.9332 37.55 31.2332C43.6167 30.4665 49.6333 31.6998 50.2333 31.8165C50.1833 27.5332 48.65 23.5832 46.1 20.4832Z" fill="#931748"/>
</svg>
