<svg width="48" height="48" viewBox="0 0 48 48" fill="none" xmlns="http://www.w3.org/2000/svg">
<path fill-rule="evenodd" clip-rule="evenodd" d="M2.31127 6.09504C0 9.5541 0 14.3694 0 24C0 33.6306 0 38.4459 2.31127 41.905C3.31185 43.4024 4.59757 44.6882 6.09504 45.6887C9.5541 48 14.3694 48 24 48C33.6306 48 38.4459 48 41.905 45.6887C43.4024 44.6882 44.6882 43.4024 45.6887 41.905C48 38.4459 48 33.6306 48 24C48 14.3694 48 9.5541 45.6887 6.09504C44.6882 4.59757 43.4024 3.31185 41.905 2.31127C38.4459 0 33.6306 0 24 0C14.3694 0 9.5541 0 6.09504 2.31127C4.59757 3.31185 3.31185 4.59757 2.31127 6.09504Z" fill="#053EFF"/>
<path fill-rule="evenodd" clip-rule="evenodd" d="M2.31127 6.09504C0 9.5541 0 14.3694 0 24C0 33.6306 0 38.4459 2.31127 41.905C3.31185 43.4024 4.59757 44.6882 6.09504 45.6887C9.5541 48 14.3694 48 24 48C33.6306 48 38.4459 48 41.905 45.6887C43.4024 44.6882 44.6882 43.4024 45.6887 41.905C48 38.4459 48 33.6306 48 24C48 14.3694 48 9.5541 45.6887 6.09504C44.6882 4.59757 43.4024 3.31185 41.905 2.31127C38.4459 0 33.6306 0 24 0C14.3694 0 9.5541 0 6.09504 2.31127C4.59757 3.31185 3.31185 4.59757 2.31127 6.09504Z" fill="#E74D89"/>
<path d="M24 39.9625C15.175 39.9625 8 32.8 8 23.9875C8 15.1625 15.175 8 24 8C32.825 8 40 15.1625 40 23.975C40 32.7875 32.825 39.9625 24 39.9625ZM37.4875 26.1625C37.025 26.0125 33.2625 24.9 28.975 25.575C30.7625 30.475 31.4875 34.475 31.625 35.3C34.7 33.2375 36.8875 29.9625 37.4875 26.1625ZM29.3375 36.5625C29.1375 35.3625 28.3375 31.1875 26.425 26.2125C26.4 26.225 26.3625 26.2375 26.3375 26.2375C18.625 28.925 15.8625 34.2625 15.6125 34.7625C17.925 36.5625 20.8375 37.6375 24 37.6375C25.8875 37.65 27.7 37.2625 29.3375 36.5625ZM13.85 33.125C14.1625 32.6 17.9125 26.4 24.9625 24.1125C25.1375 24.05 25.325 24 25.5 23.95C25.1625 23.175 24.7875 22.4 24.3875 21.6375C17.5625 23.675 10.9375 23.5875 10.3375 23.575C10.3375 23.7125 10.325 23.85 10.325 23.9875C10.3375 27.5 11.6625 30.7 13.85 33.125ZM10.625 21.2C11.2375 21.2125 16.8625 21.2375 23.2625 19.5375C21 15.5125 18.55 12.1375 18.2 11.65C14.3625 13.45 11.5125 16.975 10.625 21.2ZM20.8 10.725C21.175 11.225 23.6625 14.6 25.9 18.7125C30.7625 16.8875 32.8125 14.1375 33.0625 13.7875C30.65 11.65 27.475 10.35 24 10.35C22.9 10.35 21.825 10.4875 20.8 10.725ZM34.575 15.3625C34.2875 15.75 32 18.6875 26.95 20.75C27.2625 21.4 27.575 22.0625 27.8625 22.725C27.9625 22.9625 28.0625 23.2 28.1625 23.425C32.7125 22.85 37.225 23.775 37.675 23.8625C37.6375 20.65 36.4875 17.6875 34.575 15.3625Z" fill="#931748"/>
</svg>
