<svg width="64" height="64" viewBox="0 0 64 64" fill="none" xmlns="http://www.w3.org/2000/svg">
<path d="M12.8 51.2L25.6 38.4L31.36 44.08L38.4 35.2L51.2 51.2H12.8ZM19.2 25.6C17.44 25.6 15.9339 24.9728 14.6816 23.7184C13.4272 22.4661 12.8 20.96 12.8 19.2C12.8 17.44 13.4272 15.9339 14.6816 14.6816C15.9339 13.4272 17.44 12.8 19.2 12.8C20.96 12.8 22.4672 13.4272 23.7216 14.6816C24.9739 15.9339 25.6 17.44 25.6 19.2C25.6 20.96 24.9739 22.4661 23.7216 23.7184C22.4672 24.9728 20.96 25.6 19.2 25.6ZM9.6 64C6.93333 64 4.66667 63.0667 2.8 61.2C0.933333 59.3333 0 57.0667 0 54.4V9.6C0 6.93333 0.933333 4.66667 2.8 2.8C4.66667 0.933333 6.93333 0 9.6 0H54.4C57.0667 0 59.3333 0.933333 61.2 2.8C63.0667 4.66667 64 6.93333 64 9.6V54.4C64 57.0667 63.0667 59.3333 61.2 61.2C59.3333 63.0667 57.0667 64 54.4 64H9.6ZM9.6 57.6H54.4C55.3067 57.6 56.0661 57.2928 56.6784 56.6784C57.2928 56.0661 57.6 55.3067 57.6 54.4V9.6C57.6 8.69333 57.2928 7.9328 56.6784 7.3184C56.0661 6.70613 55.3067 6.4 54.4 6.4H9.6C8.69333 6.4 7.9328 6.70613 7.3184 7.3184C6.70613 7.9328 6.4 8.69333 6.4 9.6V54.4C6.4 55.3067 6.70613 56.0661 7.3184 56.6784C7.9328 57.2928 8.69333 57.6 9.6 57.6Z" fill="white"/>
</svg>
