<svg width="64" height="64" viewBox="0 0 64 64" fill="none" xmlns="http://www.w3.org/2000/svg">
<path fill-rule="evenodd" clip-rule="evenodd" d="M3.0817 8.12672C0 12.7388 0 19.1592 0 32C0 44.8408 0 51.2612 3.0817 55.8733C4.4158 57.8699 6.1301 59.5842 8.12672 60.9183C12.7388 64 19.1592 64 32 64C44.8408 64 51.2612 64 55.8733 60.9183C57.8699 59.5842 59.5842 57.8699 60.9183 55.8733C64 51.2612 64 44.8408 64 32C64 19.1592 64 12.7388 60.9183 8.12672C59.5842 6.1301 57.8699 4.4158 55.8733 3.0817C51.2612 0 44.8408 0 32 0C19.1592 0 12.7388 0 8.12672 3.0817C6.1301 4.4158 4.4158 6.1301 3.0817 8.12672Z" fill="#0A66C2"/>
<g clip-path="url(#clip0_866_2517)">
<path d="M43.265 43.2668H38.5239V35.8394C38.5239 34.0684 38.492 31.788 36.0576 31.788C33.5882 31.788 33.2101 33.7173 33.2101 35.7092V43.2662H28.469V27.9964H33.0205V30.0834H33.0818C33.5374 29.3045 34.1957 28.6638 34.9866 28.2295C35.7775 27.7951 36.6714 27.5835 37.5731 27.617C42.3787 27.617 43.265 30.7783 43.265 34.8904V43.2668ZM23.119 25.9087C22.5748 25.9088 22.0427 25.7475 21.5901 25.4452C21.1375 25.1429 20.7847 24.7132 20.5763 24.2104C20.368 23.7075 20.3134 23.1542 20.4195 22.6204C20.5256 22.0865 20.7876 21.5961 21.1724 21.2112C21.5572 20.8263 22.0475 20.5642 22.5813 20.4579C23.1151 20.3517 23.6685 20.4062 24.1713 20.6144C24.6742 20.8227 25.104 21.1754 25.4063 21.628C25.7087 22.0805 25.8701 22.6126 25.8701 23.1569C25.8701 23.8866 25.5803 24.5864 25.0644 25.1025C24.5485 25.6185 23.8487 25.9085 23.119 25.9087V25.9087ZM25.4896 43.2662H20.7436V27.9964H25.4902L25.4896 43.2662ZM45.6264 16.0026H18.3607C18.054 15.9988 17.7496 16.0556 17.4648 16.1697C17.1801 16.2838 16.9206 16.453 16.7014 16.6675C16.4821 16.882 16.3073 17.1376 16.1869 17.4198C16.0666 17.702 16.003 18.0051 16 18.3118V45.689C16.0073 46.3083 16.2601 46.8993 16.7028 47.3323C17.1456 47.7653 17.7421 48.0048 18.3613 47.9983H45.6264C46.2472 48.0066 46.846 47.7681 47.291 47.335C47.736 46.902 47.9908 46.3099 47.9994 45.689V18.3069C47.9905 17.6864 47.7355 17.0948 47.2905 16.6624C46.8454 16.2299 46.2469 15.9919 45.6264 16.0007" fill="white"/>
</g>
<defs>
<clipPath id="clip0_866_2517">
<rect x="16" y="16" width="32" height="32" rx="1" fill="white"/>
</clipPath>
</defs>
</svg>
