<svg width="48" height="48" viewBox="0 0 48 48" fill="none" xmlns="http://www.w3.org/2000/svg">
<path fill-rule="evenodd" clip-rule="evenodd" d="M2.31127 6.09504C0 9.5541 0 14.3694 0 24C0 33.6306 0 38.4459 2.31127 41.905C3.31185 43.4024 4.59757 44.6882 6.09504 45.6887C9.5541 48 14.3694 48 24 48C33.6306 48 38.4459 48 41.905 45.6887C43.4024 44.6882 44.6882 43.4024 45.6887 41.905C48 38.4459 48 33.6306 48 24C48 14.3694 48 9.5541 45.6887 6.09504C44.6882 4.59757 43.4024 3.31185 41.905 2.31127C38.4459 0 33.6306 0 24 0C14.3694 0 9.5541 0 6.09504 2.31127C4.59757 3.31185 3.31185 4.59757 2.31127 6.09504Z" fill="#0A66C2"/>
<g clip-path="url(#clip0_3008_5677)">
<path d="M32.4488 32.4502H28.8929V26.8796C28.8929 25.5515 28.869 23.8412 27.0432 23.8412C25.1912 23.8412 24.9076 25.2881 24.9076 26.782V32.4498H21.3518V20.9974H24.7653V22.5627H24.8114C25.1531 21.9785 25.6468 21.498 26.24 21.1722C26.8332 20.8465 27.5036 20.6877 28.1798 20.7129C31.784 20.7129 32.4488 23.0838 32.4488 26.1679V32.4502ZM17.3393 19.4316C16.9311 19.4317 16.532 19.3108 16.1926 19.084C15.8531 18.8573 15.5885 18.535 15.4322 18.1579C15.276 17.7808 15.235 17.3658 15.3146 16.9654C15.3942 16.565 15.5907 16.1972 15.8793 15.9085C16.1679 15.6199 16.5357 15.4232 16.936 15.3436C17.3364 15.2639 17.7513 15.3047 18.1285 15.4609C18.5056 15.6171 18.828 15.8817 19.0548 16.2211C19.2816 16.5605 19.4026 16.9595 19.4026 17.3678C19.4026 17.9151 19.1852 18.4399 18.7983 18.827C18.4114 19.214 17.8865 19.4315 17.3393 19.4316V19.4316ZM19.1172 32.4498H15.5577V20.9974H19.1176L19.1172 32.4498ZM34.2198 12.002H13.7705C13.5405 11.9993 13.3122 12.0419 13.0986 12.1274C12.8851 12.213 12.6905 12.3399 12.526 12.5007C12.3616 12.6616 12.2304 12.8533 12.1402 13.065C12.0499 13.2766 12.0023 13.5039 12 13.734V34.2669C12.0055 34.7313 12.1951 35.1746 12.5271 35.4994C12.8592 35.8241 13.3066 36.0037 13.771 35.9988H34.2198C34.6854 36.0051 35.1345 35.8262 35.4683 35.5014C35.802 35.1766 35.9931 34.7326 35.9995 34.2669V13.7303C35.9929 13.2649 35.8016 12.8213 35.4679 12.4969C35.1341 12.1725 34.6851 11.994 34.2198 12.0007" fill="white"/>
</g>
<defs>
<clipPath id="clip0_3008_5677">
<rect x="12" y="12" width="24" height="24" rx="1" fill="white"/>
</clipPath>
</defs>
</svg>
