<svg width="48" height="48" viewBox="0 0 48 48" fill="none" xmlns="http://www.w3.org/2000/svg">
<path fill-rule="evenodd" clip-rule="evenodd" d="M0 24C0 14.3694 0 9.5541 2.31127 6.09504C3.31185 4.59757 4.59757 3.31185 6.09504 2.31127C9.5541 0 14.3694 0 24 0C33.6306 0 38.4459 0 41.905 2.31127C43.4024 3.31185 44.6882 4.59757 45.6887 6.09504C48 9.5541 48 14.3694 48 24C48 33.6306 48 38.4459 45.6887 41.905C44.6882 43.4024 43.4024 44.6882 41.905 45.6887C38.4459 48 33.6306 48 24 48C14.3694 48 9.5541 48 6.09504 45.6887C4.59757 44.6882 3.31185 43.4024 2.31127 41.905C0 38.4459 0 33.6306 0 24ZM35.9871 15.5545C36.2038 13.242 33.6138 14.1942 33.6138 14.1942C31.7778 14.9109 29.8853 15.6388 27.9728 16.3744C27.8877 16.4071 27.8026 16.4398 27.7175 16.4726C21.5412 18.8481 15.1612 21.3019 9.7255 23.7171C6.77555 24.7372 8.50219 25.7574 8.50219 25.7574L13.1795 27.1182C15.3374 27.7305 16.4887 27.0497 16.4887 27.0497L26.5619 20.588C30.1592 18.2755 29.2959 20.1801 28.4326 20.996L20.8787 27.7984C19.7267 28.7506 20.3027 29.5665 20.8067 29.9751C22.2332 31.1616 25.7412 33.3325 27.2755 34.282C27.6757 34.5297 27.9417 34.6942 28.0012 34.7365C28.3612 35.0087 30.3039 36.2325 31.5985 35.9609C32.8938 35.6888 33.0378 34.1243 33.0378 34.1243L34.7645 23.4449C35.0229 21.5967 35.3189 19.8199 35.5557 18.3988C35.7808 17.048 35.9524 16.0185 35.9871 15.5545Z" fill="#0088CC"/>
<path d="M33.6138 14.1942C33.6138 14.1942 36.2038 13.242 35.9871 15.5545C35.9524 16.0185 35.7808 17.048 35.5557 18.3988C35.3189 19.8199 35.0229 21.5967 34.7645 23.4449L33.0378 34.1243C33.0378 34.1243 32.8938 35.6888 31.5985 35.9609C30.3039 36.2325 28.3612 35.0087 28.0012 34.7365C27.9417 34.6942 27.6757 34.5297 27.2755 34.282C25.7412 33.3325 22.2332 31.1616 20.8067 29.9751C20.3027 29.5665 19.7267 28.7506 20.8787 27.7984L28.4326 20.996C29.2959 20.1801 30.1592 18.2755 26.5619 20.588L16.4887 27.0497C16.4887 27.0497 15.3374 27.7305 13.1795 27.1182L8.50219 25.7574C8.50219 25.7574 6.77555 24.7372 9.7255 23.7171C15.1612 21.3019 21.5412 18.8481 27.7175 16.4726L27.9728 16.3744C29.8853 15.6388 31.7778 14.9109 33.6138 14.1942Z" fill="white"/>
</svg>
