<svg width="64" height="64" viewBox="0 0 64 64" fill="none" xmlns="http://www.w3.org/2000/svg">
<path fill-rule="evenodd" clip-rule="evenodd" d="M3.0817 8.12672C0 12.7388 0 19.1592 0 32C0 44.8408 0 51.2612 3.0817 55.8733C4.4158 57.8699 6.1301 59.5842 8.12672 60.9183C12.7388 64 19.1592 64 32 64C44.8408 64 51.2612 64 55.8733 60.9183C57.8699 59.5842 59.5842 57.8699 60.9183 55.8733C64 51.2612 64 44.8408 64 32C64 19.1592 64 12.7388 60.9183 8.12672C59.5842 6.1301 57.8699 4.4158 55.8733 3.0817C51.2612 0 44.8408 0 32 0C19.1592 0 12.7388 0 8.12672 3.0817C6.1301 4.4158 4.4158 6.1301 3.0817 8.12672Z" fill="white"/>
<path d="M46.7452 24.0455C46.7677 24.3859 46.7677 24.7263 46.7677 25.0698C46.7677 35.5372 39.1204 47.6094 25.137 47.6094V47.6031C21.0062 47.6094 16.9613 46.3764 13.4839 44.0517C14.0845 44.127 14.6882 44.1647 15.2933 44.1663C18.7166 44.1694 22.0419 42.9725 24.7351 40.7686C21.4819 40.7043 18.6292 38.4941 17.6327 35.2674C18.7723 35.4965 19.9465 35.4494 21.0649 35.131C17.5183 34.3843 14.9667 31.1372 14.9667 27.3663C14.9667 27.3317 14.9667 27.2988 14.9667 27.2659C16.0234 27.8792 17.2067 28.2196 18.417 28.2572C15.0766 25.931 14.0469 21.3004 16.0641 17.68C19.9239 22.629 25.6187 25.6376 31.732 25.9561C31.1194 23.2047 31.9563 20.3215 33.9314 18.3874C36.9933 15.3882 41.809 15.5419 44.6873 18.731C46.3899 18.3812 48.0217 17.7302 49.5151 16.8078C48.9475 18.6415 47.7598 20.1992 46.1731 21.189C47.68 21.0039 49.1523 20.5835 50.5387 19.9419C49.5181 21.5357 48.2325 22.9239 46.7452 24.0455Z" fill="#1D9BF0"/>
</svg>
