<svg width="48" height="48" viewBox="0 0 48 48" fill="none" xmlns="http://www.w3.org/2000/svg">
<path fill-rule="evenodd" clip-rule="evenodd" d="M2.31127 6.09504C0 9.5541 0 14.3694 0 24C0 33.6306 0 38.4459 2.31127 41.905C3.31185 43.4024 4.59757 44.6882 6.09504 45.6887C9.5541 48 14.3694 48 24 48C33.6306 48 38.4459 48 41.905 45.6887C43.4024 44.6882 44.6882 43.4024 45.6887 41.905C48 38.4459 48 33.6306 48 24C48 14.3694 48 9.5541 45.6887 6.09504C44.6882 4.59757 43.4024 3.31185 41.905 2.31127C38.4459 0 33.6306 0 24 0C14.3694 0 9.5541 0 6.09504 2.31127C4.59757 3.31185 3.31185 4.59757 2.31127 6.09504Z" fill="white"/>
<path d="M35.0589 18.0341C35.0758 18.2894 35.0758 18.5447 35.0758 18.8023C35.0758 26.6529 29.3403 35.707 18.8528 35.707V35.7023C15.7547 35.707 12.721 34.7823 10.1129 33.0388C10.5634 33.0953 11.0161 33.1235 11.47 33.1247C14.0374 33.127 16.5315 32.2294 18.5513 30.5765C16.1115 30.5282 13.9719 28.8706 13.2245 26.4506C14.0792 26.6223 14.9599 26.587 15.7987 26.3482C13.1387 25.7882 11.225 23.3529 11.225 20.5247C11.225 20.4988 11.225 20.4741 11.225 20.4494C12.0176 20.9094 12.905 21.1647 13.8128 21.1929C11.3074 19.4482 10.5352 15.9753 12.0481 13.26C14.9429 16.9717 19.214 19.2282 23.799 19.467C23.3395 17.4035 23.9673 15.2412 25.4486 13.7906C27.745 11.5412 31.3568 11.6565 33.5155 14.0482C34.7924 13.7859 36.0163 13.2976 37.1363 12.6059C36.7107 13.9812 35.8198 15.1494 34.6298 15.8918C35.76 15.7529 36.8642 15.4376 37.904 14.9565C37.1386 16.1517 36.1744 17.1929 35.0589 18.0341Z" fill="#1D9BF0"/>
</svg>
