<svg width="48" height="48" viewBox="0 0 48 48" fill="none" xmlns="http://www.w3.org/2000/svg">
<path fill-rule="evenodd" clip-rule="evenodd" d="M2.31127 6.09504C0 9.5541 0 14.3694 0 24C0 33.6306 0 38.4459 2.31127 41.905C3.31185 43.4024 4.59757 44.6882 6.09504 45.6887C9.5541 48 14.3694 48 24 48C33.6306 48 38.4459 48 41.905 45.6887C43.4024 44.6882 44.6882 43.4024 45.6887 41.905C48 38.4459 48 33.6306 48 24C48 14.3694 48 9.5541 45.6887 6.09504C44.6882 4.59757 43.4024 3.31185 41.905 2.31127C38.4459 0 33.6306 0 24 0C14.3694 0 9.5541 0 6.09504 2.31127C4.59757 3.31185 3.31185 4.59757 2.31127 6.09504Z" fill="#2787F5"/>
<path fill-rule="evenodd" clip-rule="evenodd" d="M39.3085 16.5366C39.5309 15.7949 39.3085 15.25 38.2501 15.25H34.7501C33.8601 15.25 33.4499 15.7207 33.2273 16.2398C33.2273 16.2398 31.4475 20.5782 28.9261 23.3963C28.1103 24.212 27.7395 24.4716 27.2945 24.4716C27.0721 24.4716 26.75 24.212 26.75 23.4705V16.5366C26.75 15.6466 26.4917 15.25 25.7501 15.25H20.2501C19.6939 15.25 19.3595 15.663 19.3595 16.0545C19.3595 16.8981 20.6201 17.0927 20.7501 19.4658V24.62C20.7501 25.75 20.546 25.9549 20.101 25.9549C18.9145 25.9549 16.0283 21.5971 14.3165 16.6107C13.981 15.6415 13.6446 15.25 12.7501 15.25H9.25006C8.25006 15.25 8.05005 15.7207 8.05005 16.2398C8.05005 17.1669 9.23663 21.7648 13.575 27.8459C16.4671 31.9988 20.5421 34.25 24.2501 34.25C26.4748 34.25 26.7501 33.75 26.7501 32.8887V29.75C26.7501 28.75 26.9608 28.5504 27.6653 28.5504C28.1844 28.5504 29.0744 28.81 31.1509 30.8123C33.524 33.1854 33.9152 34.25 35.2501 34.25H38.7501C39.7501 34.25 40.2501 33.75 39.9616 32.7633C39.646 31.7799 38.513 30.353 37.0095 28.6617C36.1937 27.6976 34.9701 26.6594 34.5993 26.1402C34.0802 25.4728 34.2285 25.1761 34.5993 24.5829C34.5993 24.5829 38.8635 18.5759 39.3085 16.5366V16.5366Z" fill="white"/>
</svg>
