<svg width="64" height="64" viewBox="0 0 64 64" fill="none" xmlns="http://www.w3.org/2000/svg">
<path fill-rule="evenodd" clip-rule="evenodd" d="M3.0817 8.12672C0 12.7388 0 19.1592 0 32C0 44.8408 0 51.2612 3.0817 55.8733C4.4158 57.8699 6.1301 59.5842 8.12672 60.9183C12.7388 64 19.1592 64 32 64C44.8408 64 51.2612 64 55.8733 60.9183C57.8699 59.5842 59.5842 57.8699 60.9183 55.8733C64 51.2612 64 44.8408 64 32C64 19.1592 64 12.7388 60.9183 8.12672C59.5842 6.1301 57.8699 4.4158 55.8733 3.0817C51.2612 0 44.8408 0 32 0C19.1592 0 12.7388 0 8.12672 3.0817C6.1301 4.4158 4.4158 6.1301 3.0817 8.12672Z" fill="#2787F5"/>
<path fill-rule="evenodd" clip-rule="evenodd" d="M52.4113 22.0489C52.7079 21.0601 52.4114 20.3335 51.0001 20.3335H46.3334C45.1469 20.3335 44.5998 20.9612 44.3031 21.6533C44.3031 21.6533 41.93 27.4378 38.5681 31.1952C37.4804 32.2829 36.986 32.6289 36.3927 32.6289C36.0961 32.6289 35.6667 32.2829 35.6667 31.2941V22.0489C35.6667 20.8623 35.3223 20.3335 34.3334 20.3335H27.0001C26.2586 20.3335 25.8126 20.8842 25.8126 21.4062C25.8126 22.531 27.4935 22.7904 27.6668 25.9546V32.8268C27.6668 34.3335 27.3947 34.6067 26.8014 34.6067C25.2193 34.6067 21.3711 28.7963 19.0887 22.1477C18.6414 20.8555 18.1928 20.3335 17.0001 20.3335H12.3334C11.0001 20.3335 10.7334 20.9612 10.7334 21.6533C10.7334 22.8893 12.3155 29.0199 18.0999 37.128C21.9562 42.6653 27.3894 45.6668 32.3334 45.6668C35.2998 45.6668 35.6668 45.0002 35.6668 43.8518V39.6668C35.6668 38.3335 35.9478 38.0674 36.8871 38.0674C37.5793 38.0674 38.7658 38.4135 41.5345 41.0832C44.6987 44.2474 45.2203 45.6668 47.0001 45.6668H51.6668C53.0001 45.6668 53.6668 45.0002 53.2822 43.6845C52.8613 42.3733 51.3506 40.4709 49.3461 38.2157C48.2583 36.9303 46.6268 35.546 46.1324 34.8537C45.4402 33.9639 45.638 33.5683 46.1324 32.7773C46.1324 32.7773 51.8181 24.768 52.4113 22.0489V22.0489Z" fill="white"/>
</svg>
