<svg width="64" height="64" viewBox="0 0 64 64" fill="none" xmlns="http://www.w3.org/2000/svg">
<path fill-rule="evenodd" clip-rule="evenodd" d="M3.0817 8.12672C0 12.7388 0 19.1592 0 32C0 44.8408 0 51.2612 3.0817 55.8733C4.4158 57.8699 6.1301 59.5842 8.12672 60.9183C12.7388 64 19.1592 64 32 64C44.8408 64 51.2612 64 55.8733 60.9183C57.8699 59.5842 59.5842 57.8699 60.9183 55.8733C64 51.2612 64 44.8408 64 32C64 19.1592 64 12.7388 60.9183 8.12672C59.5842 6.1301 57.8699 4.4158 55.8733 3.0817C51.2612 0 44.8408 0 32 0C19.1592 0 12.7388 0 8.12672 3.0817C6.1301 4.4158 4.4158 6.1301 3.0817 8.12672Z" fill="#680000"/>
<path d="M49.8866 22.8305C49.4573 21.1915 48.1923 19.9007 46.5858 19.4626C43.6746 18.6665 32 18.6665 32 18.6665C32 18.6665 20.3256 18.6665 17.4142 19.4626C15.8077 19.9007 14.5424 21.1915 14.1134 22.8305C13.3333 25.8013 13.3333 31.9998 13.3333 31.9998C13.3333 31.9998 13.3333 38.198 14.1134 41.1692C14.5424 42.8083 15.8077 44.0988 17.414 44.5374C20.3254 45.3332 31.9998 45.3332 31.9998 45.3332C31.9998 45.3332 43.6744 45.3332 46.5857 44.5374C48.1922 44.099 49.4571 42.8083 49.8865 41.1693C50.6667 38.1982 50.6667 32 50.6667 32C50.6667 32 50.6667 25.8015 49.8865 22.8307" fill="#FF0000"/>
<path d="M29.3333 37.3332L37.3333 32.0001L29.3333 26.6665V37.3332Z" fill="white"/>
</svg>
