<svg width="48" height="48" viewBox="0 0 48 48" fill="none" xmlns="http://www.w3.org/2000/svg">
<path fill-rule="evenodd" clip-rule="evenodd" d="M2.31127 6.09504C0 9.5541 0 14.3694 0 24C0 33.6306 0 38.4459 2.31127 41.905C3.31185 43.4024 4.59757 44.6882 6.09504 45.6887C9.5541 48 14.3694 48 24 48C33.6306 48 38.4459 48 41.905 45.6887C43.4024 44.6882 44.6882 43.4024 45.6887 41.905C48 38.4459 48 33.6306 48 24C48 14.3694 48 9.5541 45.6887 6.09504C44.6882 4.59757 43.4024 3.31185 41.905 2.31127C38.4459 0 33.6306 0 24 0C14.3694 0 9.5541 0 6.09504 2.31127C4.59757 3.31185 3.31185 4.59757 2.31127 6.09504Z" fill="#FF0000"/>
<path d="M37.415 17.123C37.0929 15.8937 36.1442 14.9256 34.9394 14.5971C32.756 14 24 14 24 14C24 14 15.2442 14 13.0606 14.5971C11.8558 14.9256 10.9068 15.8937 10.585 17.123C10 19.3511 10 24 10 24C10 24 10 28.6487 10.585 30.877C10.9068 32.1064 11.8558 33.0742 13.0605 33.4031C15.244 34 23.9999 34 23.9999 34C23.9999 34 32.7558 34 34.9392 33.4031C36.1441 33.0744 37.0928 32.1064 37.4149 30.8771C38 28.6488 38 24.0001 38 24.0001C38 24.0001 38 19.3512 37.4149 17.1231" fill="white"/>
<path d="M22 28L28 24.0002L22 20V28Z" fill="#FF0000"/>
</svg>
